<?xml version="1.0" encoding="utf-8"?>
<!-- Generator: Adobe Illustrator 21.1.0, SVG Export Plug-In . SVG Version: 6.00 Build 0)  -->
<svg version="1.1" id="Layer_1" xmlns="http://www.w3.org/2000/svg" xmlns:xlink="http://www.w3.org/1999/xlink" x="0px" y="0px"
	 viewBox="0 0 45.3 27.3" style="enable-background:new 0 0 45.3 27.3;" xml:space="preserve">
<style type="text/css">
	.st0{fill:#FFFFFF;}
</style>
<g>
	<path class="st0" d="M37.5,5.5c-2-1.4-4.5-2.5-7.1-3.1c-0.7-0.2-1.3-0.3-2-0.4c0,0-0.1,0-0.1,0c-1,0.7-1.9,1.5-2.7,2.4
		c0.9-0.1,1.8-0.2,2.7-0.2C31.7,4,34.7,4.5,37.5,5.5z"/>
	<path class="st0" d="M24.8,12c1.3-0.9,2.7-1.8,4.2-2.5c3.7-1.7,7.5-2.5,11.2-2.3c-3.1-1.4-6.7-2.1-10.5-2c-1.9,0.1-3.7,0.3-5.4,0.8
		c-0.9,1.1-1.6,2.4-2.1,3.7C22.9,10.6,23.8,11.3,24.8,12z"/>
	<path class="st0" d="M20.9,15.7c1-1.2,2.1-2.3,3.4-3.3c-0.9-0.6-1.7-1.3-2.5-2C21.3,12.1,20.9,13.8,20.9,15.7z"/>
	<path class="st0" d="M21.9,8.9c0.4-0.9,0.9-1.7,1.4-2.5c-1.1,0.3-2.1,0.7-3.1,1.2c0.5,0.6,1,1.2,1.5,1.7C21.7,9.2,21.8,9,21.9,8.9z
		"/>
	<path class="st0" d="M43.2,23.3c0,0-0.1,0-0.1,0c-1.9,0-3.2-1.2-3.2-2.8v0c0-1.6,1.4-2.8,3.1-2.8c0.1,0,0.2,0,0.3,0v-1.9
		c-0.1,0-0.2,0-0.2,0c-3.4,0-6,2-6,4.7v0c0,2.6,2.6,4.7,5.9,4.7c0.1,0,0.2,0,0.3,0V23.3z"/>
	<path class="st0" d="M8.8,19.3c-2-0.4-2.3-0.6-2.3-1.3v0c0-0.5,0.5-0.8,1.5-0.8c0.5,0,1.2,0.1,1.6,0.3v-2c-0.4-0.1-1.1-0.2-1.6-0.2
		c-2.4,0-4.1,1.2-4.1,2.9v0c0,1.9,1.5,2.5,3.8,2.9c1.9,0.4,2.1,0.7,2.1,1.2v0c0,0.6-0.6,0.9-1.7,0.9c-1.3,0-2.2-0.5-3.2-1.2
		l-1.5,1.5c1.4,1,3,1.5,4.7,1.5c2.5,0,4.3-1.1,4.3-3v0C12.5,20.5,11.1,19.8,8.8,19.3"/>
	<path class="st0" d="M14.6,20.2c0.2-1,0.9-1.7,1.9-1.7c1.1,0,1.7,0.7,1.9,1.7H14.6z M16.6,16.7c-2.6,0-4.4,1.9-4.4,4.1v0
		c0,2.4,2,4.1,4.7,4.1c0.1,0,0.3,0,0.4,0v-1.8c-0.1,0-0.3,0-0.4,0c-1.1,0-1.9-0.5-2.2-1.5h6.2c0-0.2,0-0.3,0-0.6v0
		C20.9,18.7,19.6,16.7,16.6,16.7"/>
	<path class="st0" d="M28.9,20.6c0-2.1-1.3-3.8-4.1-3.8c-2.8,0-4.1,1.7-4.1,3.8v4.2h2.6v-4.3c0-0.8,0.4-1.7,1.5-1.7
		c1.2,0,1.5,0.9,1.5,1.7v4.3h2.5V20.6z"/>
	<path class="st0" d="M33.1,16.7c-0.1,0-0.5,0-0.6,0v1.9c0.5,0,1.2,0.1,1.5,0.2c0.4,0.2,0.7,0.6,0.7,1.2c-0.6-0.1-1.3-0.1-1.9-0.1
		c-2.4-0.1-3.6,0.7-3.9,2c0,0,0,0,0,0.1c0,0,0,0,0,0c0,0.1,0,0.3,0,0.4v0c0,1.6,1.4,2.4,3.1,2.4c1.2,0,2.1-0.4,2.7-1v0.9h2.5v-4.6
		C37.1,18,35.9,16.7,33.1,16.7z M34.7,22c-0.2,1.2-1.4,1.3-1.7,1.3c-1.9,0.1-2-1.2-1.4-1.6c0.9-0.5,3-0.2,3-0.2
		C34.7,21.5,34.7,21.7,34.7,22z"/>
</g>
</svg>
