<?xml version="1.0" encoding="utf-8"?>
<!-- Generator: Adobe Illustrator 21.1.0, SVG Export Plug-In . SVG Version: 6.00 Build 0)  -->
<svg version="1.1" id="Capa_1" xmlns="http://www.w3.org/2000/svg" xmlns:xlink="http://www.w3.org/1999/xlink" x="0px" y="0px"
	 viewBox="0 0 32 32" style="enable-background:new 0 0 32 32;" xml:space="preserve">
<style type="text/css">
	.st0{fill:#4D4D4D;}
</style>
<g>
	<path class="st0" d="M16.3,6.5c0-0.3-0.3-0.5-0.5-0.5c-3.1,0-5.5,2.4-5.5,5.4c0,0.3,0.3,0.5,0.5,0.5c0.3,0,0.5-0.3,0.5-0.5
		c0-2.4,2-4.4,4.5-4.4C16.1,7.1,16.3,6.8,16.3,6.5z"/>
	<path class="st0" d="M8,11.4c0,1.8,0.6,3.5,1.7,4.9l0,0c2.3,3.2,1.8,4.7,1.8,4.7c-0.1,0.3,0,0.6,0.3,0.7c0.1,0,0.2,0.1,0.3,0.1
		c0.2,0,0.4-0.1,0.5-0.3c0.1-0.2,0.8-2.1-1.8-5.8c0,0,0,0,0-0.1c-0.9-1.3-1.4-2.7-1.4-4.2c0-3.8,3.2-6.9,7-6.9s7,3.1,7,6.9
		c0,1.5-0.5,3-1.5,4.3c-2.8,3.7-1.9,5.6-1.8,5.8c0.1,0.3,0.4,0.3,0.7,0.3c0.3-0.1,0.4-0.4,0.3-0.7c0,0-0.6-1.6,1.8-4.8
		c1.1-1.4,1.7-3.1,1.7-4.8c0-4.4-3.7-8-8.1-8S8,7.1,8,11.4z"/>
	<path class="st0" d="M21.1,22.3v-0.4c0-0.7-0.6-1.3-1.3-1.3h-7.4c-0.8,0-1.3,0.6-1.3,1.3v0.4c0,0.7,0.6,1.3,1.3,1.3h7.4
		C20.5,23.5,21.1,23,21.1,22.3z M12.2,22.3v-0.4c0-0.2,0.1-0.3,0.3-0.3h7.4c0.2,0,0.3,0.1,0.3,0.3v0.4c0,0.2-0.1,0.3-0.3,0.3h-7.4
		C12.3,22.5,12.2,22.4,12.2,22.3z"/>
	<path class="st0" d="M13.3,26.7c-0.3,0-0.5,0.3-0.5,0.5v1.3c0,0.2,0.1,0.4,0.3,0.5l2.8,1.3c0.1,0,0.2,0.1,0.3,0.1
		c0.1,0,0.2,0,0.3-0.1l2.8-1.3c0.2-0.1,0.3-0.3,0.3-0.5v-1.3c0-0.3-0.3-0.5-0.5-0.5c-0.3,0-0.5,0.3-0.5,0.5v1l-2.3,1.1l-2.3-1v-1
		C13.8,26.9,13.6,26.7,13.3,26.7z"/>
	<path class="st0" d="M21.1,24.3v-0.4c0-0.7-0.6-1.3-1.3-1.3h-7.4c-0.8,0-1.3,0.6-1.3,1.3v0.4c0,0.7,0.6,1.3,1.3,1.3h7.4
		C20.5,25.5,21.1,24.9,21.1,24.3z M12.2,24.3v-0.4c0-0.2,0.1-0.3,0.3-0.3h7.4c0.2,0,0.3,0.1,0.3,0.3v0.4c0,0.2-0.1,0.3-0.3,0.3h-7.4
		C12.3,24.5,12.2,24.4,12.2,24.3z"/>
	<path class="st0" d="M21.1,26.2v-0.4c0-0.7-0.6-1.3-1.3-1.3h-7.4c-0.8,0-1.3,0.6-1.3,1.3v0.4c0,0.7,0.6,1.3,1.3,1.3h7.4
		C20.5,27.4,21.1,26.9,21.1,26.2z M12.2,26.2v-0.4c0-0.2,0.1-0.3,0.3-0.3h7.4c0.2,0,0.3,0.1,0.3,0.3v0.4c0,0.2-0.1,0.3-0.3,0.3h-7.4
		C12.3,26.4,12.2,26.4,12.2,26.2z"/>
</g>
</svg>
